<svg width="29" height="29" viewBox="0 0 29 29" fill="none" xmlns="http://www.w3.org/2000/svg">
<path fill-rule="evenodd" clip-rule="evenodd" d="M5.68222 11.9956L13.2584 4.4195L14.2012 5.3623L6.62503 12.9384L5.68222 11.9956Z" fill="#999999"/>
<path fill-rule="evenodd" clip-rule="evenodd" d="M8.19638 14.5097L15.7725 6.93353L16.7153 7.87634L9.13919 15.4525L8.19638 14.5097Z" fill="#999999"/>
<path fill-rule="evenodd" clip-rule="evenodd" d="M13.5392 19.8523L21.1153 12.2762L22.0581 13.219L14.482 20.7951L13.5392 19.8523Z" fill="#999999"/>
<path fill-rule="evenodd" clip-rule="evenodd" d="M16.0528 22.3664L23.629 14.7902L24.5718 15.733L16.9956 23.3092L16.0528 22.3664Z" fill="#999999"/>
<path fill-rule="evenodd" clip-rule="evenodd" d="M16.053 22.3665C13.4379 24.9816 9.20739 24.991 6.60389 22.3875C4.0004 19.7841 4.00982 15.5535 6.62494 12.9384L5.68213 11.9956C2.54399 15.1337 2.53268 20.2104 5.65688 23.3346C8.78107 26.4588 13.8577 26.4475 16.9958 23.3093L16.053 22.3665Z" fill="#999999"/>
<path fill-rule="evenodd" clip-rule="evenodd" d="M21.1151 12.2762L22.0579 13.219C24.4986 10.7782 24.5074 6.8297 22.0775 4.39978C19.6476 1.96985 15.6991 1.97864 13.2583 4.41942L14.2011 5.36223C16.1189 3.44447 19.2213 3.43756 21.1305 5.34679C23.0397 7.25602 23.0328 10.3584 21.1151 12.2762Z" fill="#999999"/>
<path fill-rule="evenodd" clip-rule="evenodd" d="M8.19629 14.51C6.45288 16.2534 6.4466 19.0738 8.18226 20.8094C9.91792 22.5451 12.7383 22.5388 14.4817 20.7954L13.5389 19.8526C12.3185 21.073 10.3442 21.0774 9.12928 19.8624C7.91431 18.6475 7.91871 16.6732 9.1391 15.4528L8.19629 14.51Z" fill="#999999"/>
</svg>
