<svg width="46" height="46" viewBox="0 0 46 46" fill="none" xmlns="http://www.w3.org/2000/svg">
<g clip-path="url(#clip0_20_271)">
<path d="M14.8174 36.0415C14.5526 35.7806 14.3659 35.4511 14.278 35.0899C14.1902 34.7287 14.2047 34.3502 14.32 33.9969L16.863 25.8214C16.947 25.5741 17.1244 25.3695 17.3572 25.2513C17.5901 25.1331 17.86 25.1106 18.1092 25.1888C18.3584 25.2669 18.5671 25.4395 18.6907 25.6695C18.8144 25.8995 18.8431 26.1688 18.7709 26.4197L16.2278 34.5952L41.3423 23.0842L16.3163 11.3103L19.5023 21.9666L31.2685 21.9935C31.5348 21.9941 31.79 22.1005 31.9778 22.2892C32.1657 22.478 32.2709 22.7336 32.2703 22.9999C32.2697 23.2662 32.1633 23.5213 31.9746 23.7092C31.7859 23.8971 31.5302 24.0023 31.2639 24.0017L18.7552 23.966C18.5423 23.9657 18.3351 23.8974 18.1637 23.7711C17.9923 23.6448 17.8657 23.4671 17.8023 23.2638L14.3703 11.9635C14.2338 11.5842 14.2152 11.1725 14.3167 10.7824C14.4183 10.3924 14.6353 10.0421 14.9394 9.7775C15.2435 9.51293 15.6205 9.34641 16.0209 9.29979C16.4212 9.25316 16.8264 9.3286 17.1831 9.51622L42.181 21.1911C42.5491 21.3418 42.8639 21.5988 43.0852 21.9293C43.3065 22.2599 43.4242 22.6488 43.4233 23.0466C43.4224 23.4443 43.3029 23.8328 43.0801 24.1622C42.8573 24.4917 42.5413 24.7473 42.1726 24.8963L17.1216 36.4569C16.7641 36.6289 16.3635 36.6907 15.9708 36.6344C15.578 36.5781 15.2109 36.4063 14.9161 36.1408L14.8174 36.0415Z" fill="#999999"/>
</g>
<defs>
<clipPath id="clip0_20_271">
<rect width="32" height="32" fill="white" transform="translate(23.0518 0.372559) rotate(45.1309)"/>
</clipPath>
</defs>
</svg>
